<svg xmlns="http://www.w3.org/2000/svg" style="display:none">
  <symbol id="icon-home" viewBox="0 0 16 16" fill="currentColor">
    <path d="M1 6V15H6V11C6 9.89543 6.89543 9 8 9C9.10457 9 10 9.89543 10 11V15H15V6L8 0L1 6Z" />
  </symbol>

  <symbol id="icon-search" viewBox="0 0 16 16" fill="currentColor">
    <path d="M1 14s-1 0-1-1 1-4 6-4 6 3 6 4-1 1-1 1H1zm5-6a3 3 0 1 0 0-6 3 3 0 0 0 0 6z" />
    <path d="M13.5 5a.5.5 0 0 1 .5.5V7h1.5a.5.5 0 0 1 0 1H14v1.5a.5.5 0 0 1-1 0V8h-1.5a.5.5 0 0 1 0-1H13V5.5a.5.5 0 0 1 .5-.5z" />
  </symbol>

  <symbol id="icon-profile" viewBox="0 0 20 20" fill="currentColor">
    <title>profile</title>
    <g stroke="none" stroke-width="1" fill="none" fill-rule="evenodd">
      <g transform="translate(-180.000000, -2159.000000)" fill="currentColor">
        <g transform="translate(56.000000, 160.000000)">
          <path d="M134,2008.99998 C131.783496,2008.99998 129.980955,2007.20598 129.980955,2004.99998 C129.980955,2002.79398 131.783496,2000.99998 134,2000.99998 C136.216504,2000.99998 138.019045,2002.79398 138.019045,2004.99998 C138.019045,2007.20598 136.216504,2008.99998 134,2008.99998 M137.775893,2009.67298 C139.370449,2008.39598 140.299854,2006.33098 139.958235,2004.06998 C139.561354,2001.44698 137.368965,1999.34798 134.722423,1999.04198 C131.070116,1998.61898 127.971432,2001.44898 127.971432,2004.99998 C127.971432,2006.88998 128.851603,2008.57398 130.224107,2009.67298 C126.852128,2010.93398 124.390463,2013.89498 124.004634,2017.89098 C123.948368,2018.48198 124.411563,2018.99998 125.008391,2018.99998 C125.519814,2018.99998 125.955881,2018.61598 126.001095,2018.10898 C126.404004,2013.64598 129.837274,2010.99998 134,2010.99998 C138.162726,2010.99998 141.595996,2013.64598 141.998905,2018.10898 C142.044119,2018.61598 142.480186,2018.99998 142.991609,2018.99998 C143.588437,2018.99998 144.051632,2018.48198 143.995366,2017.89098 C143.609537,2013.89498 141.147872,2010.93398 137.775893,2009.67298" />
        </g>
      </g>
    </g>
  </symbol>

  <symbol id="icon-dots" viewBox="0 0 24 24" stroke="currentColor" fill="none">
    <path d="M18 12H18.01M12 12H12.01M6 12H6.01M13 12C13 12.5523 12.5523 13 12 13C11.4477 13 11 12.5523 11 12C11 11.4477 11.4477 11 12 11C12.5523 11 13 11.4477 13 12ZM19 12C19 12.5523 18.5523 13 18 13C17.4477 13 17 12.5523 17 12C17 11.4477 17.4477 11 18 11C18.5523 11 19 11.4477 19 12ZM7 12C7 12.5523 6.55228 13 6 13C5.44772 13 5 12.5523 5 12C5 11.4477 5.44772 11 6 11C6.55228 11 7 11.4477 7 12Z" stroke-width="2" stroke-linecap="round" stroke-linejoin="round" />
  </symbol>

  <symbol id="icon-settings" viewBox="0 0 24 24" fill="currentColor">
    <path fill-rule="evenodd" clip-rule="evenodd" d="M12 8.25C9.92894 8.25 8.25 9.92893 8.25 12C8.25 14.0711 9.92894 15.75 12 15.75C14.0711 15.75 15.75 14.0711 15.75 12C15.75 9.92893 14.0711 8.25 12 8.25ZM9.75 12C9.75 10.7574 10.7574 9.75 12 9.75C13.2426 9.75 14.25 10.7574 14.25 12C14.25 13.2426 13.2426 14.25 12 14.25C10.7574 14.25 9.75 13.2426 9.75 12Z" />
    <path fill-rule="evenodd" clip-rule="evenodd" d="M11.9747 1.25C11.5303 1.24999 11.1592 1.24999 10.8546 1.27077C10.5375 1.29241 10.238 1.33905 9.94761 1.45933C9.27379 1.73844 8.73843 2.27379 8.45932 2.94762C8.31402 3.29842 8.27467 3.66812 8.25964 4.06996C8.24756 4.39299 8.08454 4.66251 7.84395 4.80141C7.60337 4.94031 7.28845 4.94673 7.00266 4.79568C6.64714 4.60777 6.30729 4.45699 5.93083 4.40743C5.20773 4.31223 4.47642 4.50819 3.89779 4.95219C3.64843 5.14353 3.45827 5.3796 3.28099 5.6434C3.11068 5.89681 2.92517 6.21815 2.70294 6.60307L2.67769 6.64681C2.45545 7.03172 2.26993 7.35304 2.13562 7.62723C1.99581 7.91267 1.88644 8.19539 1.84541 8.50701C1.75021 9.23012 1.94617 9.96142 2.39016 10.5401C2.62128 10.8412 2.92173 11.0602 3.26217 11.2741C3.53595 11.4461 3.68788 11.7221 3.68786 12C3.68785 12.2778 3.53592 12.5538 3.26217 12.7258C2.92169 12.9397 2.62121 13.1587 2.39007 13.4599C1.94607 14.0385 1.75012 14.7698 1.84531 15.4929C1.88634 15.8045 1.99571 16.0873 2.13552 16.3727C2.26983 16.6469 2.45535 16.9682 2.67758 17.3531L2.70284 17.3969C2.92507 17.7818 3.11058 18.1031 3.28089 18.3565C3.45817 18.6203 3.64833 18.8564 3.89769 19.0477C4.47632 19.4917 5.20763 19.6877 5.93073 19.5925C6.30717 19.5429 6.647 19.3922 7.0025 19.2043C7.28833 19.0532 7.60329 19.0596 7.8439 19.1986C8.08452 19.3375 8.24756 19.607 8.25964 19.9301C8.27467 20.3319 8.31403 20.7016 8.45932 21.0524C8.73843 21.7262 9.27379 22.2616 9.94761 22.5407C10.238 22.661 10.5375 22.7076 10.8546 22.7292C11.1592 22.75 11.5303 22.75 11.9747 22.75H12.0252C12.4697 22.75 12.8407 22.75 13.1454 22.7292C13.4625 22.7076 13.762 22.661 14.0524 22.5407C14.7262 22.2616 15.2616 21.7262 15.5407 21.0524C15.686 20.7016 15.7253 20.3319 15.7403 19.93C15.7524 19.607 15.9154 19.3375 16.156 19.1985C16.3966 19.0596 16.7116 19.0532 16.9974 19.2042C17.3529 19.3921 17.6927 19.5429 18.0692 19.5924C18.7923 19.6876 19.5236 19.4917 20.1022 19.0477C20.3516 18.8563 20.5417 18.6203 20.719 18.3565C20.8893 18.1031 21.0748 17.7818 21.297 17.3969L21.3223 17.3531C21.5445 16.9682 21.7301 16.6468 21.8644 16.3726C22.0042 16.0872 22.1135 15.8045 22.1546 15.4929C22.2498 14.7697 22.0538 14.0384 21.6098 13.4598C21.3787 13.1586 21.0782 12.9397 20.7378 12.7258C20.464 12.5538 20.3121 12.2778 20.3121 11.9999C20.3121 11.7221 20.464 11.4462 20.7377 11.2742C21.0783 11.0603 21.3788 10.8414 21.6099 10.5401C22.0539 9.96149 22.2499 9.23019 22.1547 8.50708C22.1136 8.19546 22.0043 7.91274 21.8645 7.6273C21.7302 7.35313 21.5447 7.03183 21.3224 6.64695L21.2972 6.60318C21.0749 6.21825 20.8894 5.89688 20.7191 5.64347C20.5418 5.37967 20.3517 5.1436 20.1023 4.95225C19.5237 4.50826 18.7924 4.3123 18.0692 4.4075C17.6928 4.45706 17.353 4.60782 16.9975 4.79572C16.7117 4.94679 16.3967 4.94036 16.1561 4.80144C15.9155 4.66253 15.7524 4.39297 15.7403 4.06991C15.7253 3.66808 15.686 3.2984 15.5407 2.94762C15.2616 2.27379 14.7262 1.73844 14.0524 1.45933C13.762 1.33905 13.4625 1.29241 13.1454 1.27077C12.8407 1.24999 12.4697 1.24999 12.0252 1.25H11.9747ZM10.5216 2.84515C10.5988 2.81319 10.716 2.78372 10.9567 2.76729C11.2042 2.75041 11.5238 2.75 12 2.75C12.4762 2.75 12.7958 2.75041 13.0432 2.76729C13.284 2.78372 13.4012 2.81319 13.4783 2.84515C13.7846 2.97202 14.028 3.21536 14.1548 3.52165C14.1949 3.61826 14.228 3.76887 14.2414 4.12597C14.271 4.91835 14.68 5.68129 15.4061 6.10048C16.1321 6.51968 16.9974 6.4924 17.6984 6.12188C18.0143 5.9549 18.1614 5.90832 18.265 5.89467C18.5937 5.8514 18.9261 5.94047 19.1891 6.14228C19.2554 6.19312 19.3395 6.27989 19.4741 6.48016C19.6125 6.68603 19.7726 6.9626 20.0107 7.375C20.2488 7.78741 20.4083 8.06438 20.5174 8.28713C20.6235 8.50382 20.6566 8.62007 20.6675 8.70287C20.7108 9.03155 20.6217 9.36397 20.4199 9.62698C20.3562 9.70995 20.2424 9.81399 19.9397 10.0041C19.2684 10.426 18.8122 11.1616 18.8121 11.9999C18.8121 12.8383 19.2683 13.574 19.9397 13.9959C20.2423 14.186 20.3561 14.29 20.4198 14.373C20.6216 14.636 20.7107 14.9684 20.6674 15.2971C20.6565 15.3799 20.6234 15.4961 20.5173 15.7128C20.4082 15.9355 20.2487 16.2125 20.0106 16.6249C19.7725 17.0373 19.6124 17.3139 19.474 17.5198C19.3394 17.72 19.2553 17.8068 19.189 17.8576C18.926 18.0595 18.5936 18.1485 18.2649 18.1053C18.1613 18.0916 18.0142 18.045 17.6983 17.8781C16.9973 17.5075 16.132 17.4803 15.4059 17.8995C14.68 18.3187 14.271 19.0816 14.2414 19.874C14.228 20.2311 14.1949 20.3817 14.1548 20.4784C14.028 20.7846 13.7846 21.028 13.4783 21.1549C13.4012 21.1868 13.284 21.2163 13.0432 21.2327C12.7958 21.2496 12.4762 21.25 12 21.25C11.5238 21.25 11.2042 21.2496 10.9567 21.2327C10.716 21.2163 10.5988 21.1868 10.5216 21.1549C10.2154 21.028 9.97201 20.7846 9.84514 20.4784C9.80512 20.3817 9.77195 20.2311 9.75859 19.874C9.72896 19.0817 9.31997 18.3187 8.5939 17.8995C7.86784 17.4803 7.00262 17.5076 6.30158 17.8781C5.98565 18.0451 5.83863 18.0917 5.73495 18.1053C5.40626 18.1486 5.07385 18.0595 4.81084 17.8577C4.74458 17.8069 4.66045 17.7201 4.52586 17.5198C4.38751 17.314 4.22736 17.0374 3.98926 16.625C3.75115 16.2126 3.59171 15.9356 3.4826 15.7129C3.37646 15.4962 3.34338 15.3799 3.33248 15.2971C3.28921 14.9684 3.37828 14.636 3.5801 14.373C3.64376 14.2901 3.75761 14.186 4.0602 13.9959C4.73158 13.5741 5.18782 12.8384 5.18786 12.0001C5.18791 11.1616 4.73165 10.4259 4.06021 10.004C3.75769 9.81389 3.64385 9.70987 3.58019 9.62691C3.37838 9.3639 3.28931 9.03149 3.33258 8.7028C3.34348 8.62001 3.37656 8.50375 3.4827 8.28707C3.59181 8.06431 3.75125 7.78734 3.98935 7.37493C4.22746 6.96253 4.3876 6.68596 4.52596 6.48009C4.66055 6.27983 4.74468 6.19305 4.81093 6.14222C5.07395 5.9404 5.40636 5.85133 5.73504 5.8946C5.83873 5.90825 5.98576 5.95483 6.30173 6.12184C7.00273 6.49235 7.86791 6.51962 8.59394 6.10045C9.31998 5.68128 9.72896 4.91837 9.75859 4.12602C9.77195 3.76889 9.80512 3.61827 9.84514 3.52165C9.97201 3.21536 10.2154 2.97202 10.5216 2.84515Z" />
  </symbol>

  <symbol id="icon-close" viewBox="0 0 24 24" stroke="currentColor" fill="none">
    <path d="M18 18L12 12M12 12L6 6M12 12L18 6M12 12L6 18" stroke-width="2" stroke-linecap="round" stroke-linejoin="round" />
  </symbol>

 <symbol
  id="icon-logout"
  viewBox="0 0 24 24"
  fill="none"
  stroke="currentColor"
>
  <path
    d="M21 12H13"
    stroke-width="2"
    stroke-linecap="round"
    stroke-linejoin="round"
  />
  <path
    d="M18 15L20.913 12.087C20.961 12.039 20.961 11.961 20.913 11.913L18 9"
    stroke-width="2"
    stroke-linecap="round"
    stroke-linejoin="round"
  />
  <path
    d="M16 5V4.5C16 3.67157 15.3284 3 14.5 3H5C3.89543 3 3 3.89543 3 5V19C3 20.1046 3.89543 21 5 21H14.5C15.3284 21 16 20.3284 16 19.5V19"
    stroke-width="2"
    stroke-linecap="round"
    stroke-linejoin="round"
  />
</symbol>

<symbol id="icon-image" viewBox="0 0 32 32">
  <path
      fill="currentColor"
      d="M30 2.497h-28c-1.099 0-2 0.901-2 2v23.006c0 1.099 0.9 2 2 2h28c1.099 0 2-0.901 2-2v-23.006c0-1.099-0.901-2-2-2zM30 27.503h-28v-5.892l8.027-7.779 8.275 8.265c0.341 0.414 0.948 0.361 1.379 0.035l3.652-3.306 6.587 6.762c0.025 0.025 0.053 0.044 0.08 0.065v1.85zM30 22.806l-5.876-6.013c-0.357-0.352-0.915-0.387-1.311-0.086l-3.768 3.282-8.28-8.19c-0.177-0.214-0.432-0.344-0.709-0.363-0.275-0.01-0.547 0.08-0.749 0.27l-7.309 7.112v-14.322h28v18.309zM23 12.504c1.102 0 1.995-0.894 1.995-1.995s-0.892-1.995-1.995-1.995-1.995 0.894-1.995 1.995c0 1.101 0.892 1.995 1.995 1.995z"
  />
</symbol>

<symbol id="icon-heart" viewBox="0 0 24 24" fill="none" stroke="currentColor">
  <path
    d="M12 6.00019C10.2006 3.90317 7.19377 3.2551 4.93923 5.17534C2.68468 7.09558 2.36727 10.3061 4.13778 12.5772C5.60984 14.4654 10.0648 18.4479 11.5249 19.7369C11.6882 19.8811 11.7699 19.9532 11.8652 19.9815C11.9483 20.0062 12.0393 20.0062 12.1225 19.9815C12.2178 19.9532 12.2994 19.8811 12.4628 19.7369C13.9229 18.4479 18.3778 14.4654 19.8499 12.5772C21.6204 10.3061 21.3417 7.07538 19.0484 5.17534C16.7551 3.2753 13.7994 3.90317 12 6.00019Z"
    stroke-width="2"
    stroke-linecap="round"
    stroke-linejoin="round"
  />
</symbol>

<symbol id="icon-heart-filled" viewBox="0 0 24 24" fill="currentColor">
  <path
    fill-rule="evenodd"
    clip-rule="evenodd"
    d="M12 6.00019C10.2006 3.90317 7.19377 3.2551 4.93923 5.17534C2.68468 7.09558 2.36727 10.3061 4.13778 12.5772C5.60984 14.4654 10.0648 18.4479 11.5249 19.7369C11.6882 19.8811 11.7699 19.9532 11.8652 19.9815C11.9483 20.0062 12.0393 20.0062 12.1225 19.9815C12.2178 19.9532 12.2994 19.8811 12.4628 19.7369C13.9229 18.4479 18.3778 14.4654 19.8499 12.5772C21.6204 10.3061 21.3417 7.07538 19.0484 5.17534C16.7551 3.2753 13.7994 3.90317 12 6.00019Z"
  />
</symbol>

<symbol id="icon-comment" viewBox="0 0 32 32">
  <path
    fill="currentColor"
    d="M16 26c-1.168 0-2.296-.136-3.38-.367L7.912 28.463l.063-4.639C4.366 21.654 2 18.066 2 14c0-6.627 6.268-12 14-12s14 5.373 14 12c0 6.628-6.268 12-14 12zm0-26C7.164 0 0 6.269 0 14c0 4.419 2.345 8.354 6 10.919V32l7.009-4.253c.97.16 1.968.253 2.991.253C24.836 28 32 21.732 32 14 32 6.269 24.836 0 16 0z"
  />
</symbol>

<symbol id="icon-arrow-left" viewBox="0 0 1024 1024">
  <path
      fill="currentColor"
      d="M224 480h640a32 32 0 1 1 0 64H224a32 32 0 0 1 0-64z"
    />
    <path
      fill="currentColor"
      d="m237.248 512 265.408 265.344a32 32 0 0 1-45.312 45.312l-288-288a32 32 0 0 1 0-45.312l288-288a32 32 0 1 1 45.312 45.312L237.248 512z"
    />
</symbol>

<symbol
  id="icon-three-dots"
  viewBox="0 0 16 16"
  fill="currentColor"
  stroke="currentColor"
>
  <path d="M9.5 13a1.5 1.5 0 1 1-3 0 1.5 1.5 0 0 1 3 0zm0-5a1.5 1.5 0 1 1-3 0 1.5 1.5 0 0 1 3 0zm0-5a1.5 1.5 0 1 1-3 0 1.5 1.5 0 0 1 3 0z" />
</symbol>

  <symbol id="icon-edit" viewBox="0 0 24 24">
    <path
      d="M21.2799 6.40005L11.7399 15.94C10.7899 16.89 7.96987 17.33 7.33987 16.7C6.70987 16.07 7.13987 13.25 8.08987 12.3L17.6399 2.75002C17.8754 2.49308 18.1605 2.28654 18.4781 2.14284C18.7956 1.99914 19.139 1.92124 19.4875 1.9139C19.8359 1.90657 20.1823 1.96991 20.5056 2.10012C20.8289 2.23033 21.1225 2.42473 21.3686 2.67153C21.6147 2.91833 21.8083 3.21243 21.9376 3.53609C22.0669 3.85976 22.1294 4.20626 22.1211 4.55471C22.1128 4.90316 22.0339 5.24635 21.8894 5.5635C21.7448 5.88065 21.5375 6.16524 21.2799 6.40005Z"
      fill="none"
      stroke="currentColor"
      stroke-width="1.5"
      stroke-linecap="round"
      stroke-linejoin="round"
    />
    <path
      d="M11 4H6C4.93913 4 3.92178 4.42142 3.17163 5.17157C2.42149 5.92172 2 6.93913 2 8V18C2 19.0609 2.42149 20.0783 3.17163 20.8284C3.92178 21.5786 4.93913 22 6 22H17C19.21 22 20 20.2 20 18V13"
      fill="none"
      stroke="currentColor"
      stroke-width="1.5"
      stroke-linecap="round"
      stroke-linejoin="round"
    />
  </symbol>

  <symbol id="icon-delete" viewBox="0 0 24 24">
    <path
      d="M10 11V17"
      fill="none"
      stroke="currentColor"
      stroke-width="2"
      stroke-linecap="round"
      stroke-linejoin="round"
    />
    <path
      d="M14 11V17"
      fill="none"
      stroke="currentColor"
      stroke-width="2"
      stroke-linecap="round"
      stroke-linejoin="round"
    />
    <path
      d="M4 7H20"
      fill="none"
      stroke="currentColor"
      stroke-width="2"
      stroke-linecap="round"
      stroke-linejoin="round"
    />
    <path
      d="M6 7H18V18C18 19.6569 16.6569 21 15 21H9C7.34315 21 6 19.6569 6 18V7Z"
      fill="none"
      stroke="currentColor"
      stroke-width="2"
      stroke-linecap="round"
      stroke-linejoin="round"
    />
    <path
      d="M9 5C9 3.89543 9.89543 3 11 3H13C14.1046 3 15 3.89543 15 5V7H9V5Z"
      fill="none"
      stroke="currentColor"
      stroke-width="2"
      stroke-linecap="round"
      stroke-linejoin="round"
    />
  </symbol>

  <symbol id="icon-followers" viewBox="0 -6 44 44">
    <path fill="currentColor" d="M42.001,32.000 L14.010,32.000 C12.908,32.000 12.010,31.104 12.010,30.001 L12.010,28.002 C12.010,27.636 12.211,27.300 12.532,27.124 L22.318,21.787 C19.040,18.242 19.004,13.227 19.004,12.995 L19.010,7.002 C19.010,6.946 19.015,6.891 19.024,6.837 C19.713,2.751 24.224,0.007 28.005,0.007 C28.006,0.007 28.008,0.007 28.009,0.007 C31.788,0.007 36.298,2.749 36.989,6.834 C36.998,6.889 37.003,6.945 37.003,7.000 L37.006,12.994 C37.006,13.225 36.970,18.240 33.693,21.785 L43.479,27.122 C43.800,27.298 44.000,27.634 44.000,28.000 L44.000,30.001 C44.000,31.104 43.103,32.000 42.001,32.000 ZM31.526,22.880 C31.233,22.720 31.039,22.425 31.008,22.093 C30.978,21.761 31.116,21.436 31.374,21.226 C34.971,18.310 35.007,13.048 35.007,12.995 L35.003,7.089 C34.441,4.089 30.883,2.005 28.005,2.005 C25.126,2.006 21.570,4.091 21.010,7.091 L21.004,12.997 C21.004,13.048 21.059,18.327 24.636,21.228 C24.895,21.438 25.033,21.763 25.002,22.095 C24.972,22.427 24.778,22.722 24.485,22.882 L14.010,28.596 L14.010,30.001 L41.999,30.001 L42.000,28.595 L31.526,22.880 ZM18.647,2.520 C17.764,2.177 16.848,1.997 15.995,1.997 C13.116,1.998 9.559,4.083 8.999,7.083 L8.993,12.989 C8.993,13.041 9.047,18.319 12.625,21.220 C12.884,21.430 13.022,21.755 12.992,22.087 C12.961,22.419 12.767,22.714 12.474,22.874 L1.999,28.588 L1.999,29.993 L8.998,29.993 C9.550,29.993 9.997,30.441 9.997,30.993 C9.997,31.545 9.550,31.993 8.998,31.993 L1.999,31.993 C0.897,31.993 -0.000,31.096 -0.000,29.993 L-0.000,27.994 C-0.000,27.629 0.200,27.292 0.521,27.117 L10.307,21.779 C7.030,18.234 6.993,13.219 6.993,12.988 L6.999,6.994 C6.999,6.939 7.004,6.883 7.013,6.829 C7.702,2.744 12.213,-0.000 15.995,-0.000 C15.999,-0.000 16.005,-0.000 16.010,-0.000 C17.101,-0.000 18.262,0.227 19.369,0.656 C19.885,0.856 20.140,1.435 19.941,1.949 C19.740,2.464 19.158,2.720 18.647,2.520 Z"/>
  </symbol>

</svg>
